HIERARCHY
ROOT Hips
{
  OFFSET 5.80788e-005 67.184 3.4734
  CHANNELS 6 Xposition Yposition Zposition Zrotation Xrotation Yrotation
  JOINT Chest
  {
    OFFSET 0 8.7983 -4.7612
    CHANNELS 3 Zrotation Xrotation Yrotation
    JOINT Chest2
    {
      OFFSET 0 8.0291 0.4195
      CHANNELS 3 Zrotation Xrotation Yrotation
      JOINT Chest3
      {
        OFFSET 0 9.9351 -2.2114
        CHANNELS 3 Zrotation Xrotation Yrotation
        JOINT Neck
        {
          OFFSET 0 22.3885 -0.4656
          CHANNELS 3 Zrotation Xrotation Yrotation
          JOINT Head
          {
            OFFSET -0.0001 12.643 3.4389
            CHANNELS 3 Zrotation Xrotation Yrotation
            End Site
            {
              OFFSET 0.0001 17.6655 0.5274
            }
          }
        }
        JOINT LeftCollar
        {
          OFFSET 2.2603 21.606 7.4023
          CHANNELS 3 Zrotation Xrotation Yrotation
          JOINT LeftShoulder
          {
            OFFSET 13.5163 -1.1332 -5.0146
            CHANNELS 3 Zrotation Xrotation Yrotation
            JOINT LeftElbow
            {
              OFFSET -0.0995 -28.05 -0.2431
              CHANNELS 3 Zrotation Xrotation Yrotation
              JOINT LeftWrist
              {
                OFFSET 0.0679 -23.3996 -0.1402
                CHANNELS 3 Zrotation Xrotation Yrotation
                JOINT LeftFinger1
                {
                  OFFSET 0.7932 -9.069 2.5189
                  CHANNELS 3 Zrotation Xrotation Yrotation
                  JOINT LeftFinger11
                  {
                    OFFSET -0.8272 -3.3923 0.5977
                    CHANNELS 3 Zrotation Xrotation Yrotation
                    JOINT LeftFinger12
                    {
                      OFFSET -0.5649 -2.3158 0.4082
                      CHANNELS 3 Zrotation Xrotation Yrotation
                      End Site
                      {
                        OFFSET -0.4919 -1.6479 0.2673
                      }
                    }
                  }
                }
                JOINT LeftFinger2
                {
                  OFFSET 0.9159 -9.2044 0.2193
                  CHANNELS 3 Zrotation Xrotation Yrotation
                  JOINT LeftFinger21
                  {
                    OFFSET 0.0117 -4.1944 -0.0248
                    CHANNELS 3 Zrotation Xrotation Yrotation
                    JOINT LeftFinger22
                    {
                      OFFSET 0.0071 -2.3249 -0.0142
                      CHANNELS 3 Zrotation Xrotation Yrotation
                      End Site
                      {
                        OFFSET -0.1475 -2.0882 0.0028
                      }
                    }
                  }
                }
                JOINT LeftFinger3
                {
                  OFFSET 0.6113 -8.7231 -2.0637
                  CHANNELS 3 Zrotation Xrotation Yrotation
                  JOINT LeftFinger31
                  {
                    OFFSET -0.1927 -3.8059 -0.2383
                    CHANNELS 3 Zrotation Xrotation Yrotation
                    JOINT LeftFinger32
                    {
                      OFFSET -0.1091 -2.1688 -0.1362
                      CHANNELS 3 Zrotation Xrotation Yrotation
                      End Site
                      {
                        OFFSET -0.2358 -1.9176 -0.0906
                      }
                    }
                  }
                }
                JOINT LeftFinger4
                {
                  OFFSET -0.6151 -8.0947 -3.5641
                  CHANNELS 3 Zrotation Xrotation Yrotation
                  JOINT LeftFinger41
                  {
                    OFFSET -0.4882 -2.341 -0.6462
                    CHANNELS 3 Zrotation Xrotation Yrotation
                    JOINT LeftFinger42
                    {
                      OFFSET -0.3575 -1.7167 -0.4742
                      CHANNELS 3 Zrotation Xrotation Yrotation
                      End Site
                      {
                        OFFSET -0.4187 -1.5237 -0.3496
                      }
                    }
                  }
                }
                JOINT LeftFinger0
                {
                  OFFSET -1.42 -1.8761 1.4223
                  CHANNELS 3 Zrotation Xrotation Yrotation
                  JOINT LeftFinger01
                  {
                    OFFSET -1.1471 -3.4929 2.6334
                    CHANNELS 3 Zrotation Xrotation Yrotation
                    JOINT LeftFinger02
                    {
                      OFFSET -0.823 -2.3 1.6571
                      CHANNELS 3 Zrotation Xrotation Yrotation
                      End Site
                      {
                        OFFSET -0.5822 -1.6914 1.1582
                      }
                    }
                  }
                }
              }
            }
          }
        }
        JOINT RightCollar
        {
          OFFSET -2.2603 21.606 7.4023
          CHANNELS 3 Zrotation Xrotation Yrotation
          JOINT RightShoulder
          {
            OFFSET -13.5187 -1.1334 -5.0155
            CHANNELS 3 Zrotation Xrotation Yrotation
            JOINT RightElbow
            {
              OFFSET 0.0994 -28.0499 -0.2431
              CHANNELS 3 Zrotation Xrotation Yrotation
              JOINT RightWrist
              {
                OFFSET -0.0679 -23.3996 -0.1402
                CHANNELS 3 Zrotation Xrotation Yrotation
                JOINT RightFinger1
                {
                  OFFSET -0.7932 -9.0691 2.5189
                  CHANNELS 3 Zrotation Xrotation Yrotation
                  JOINT RightFinger11
                  {
                    OFFSET 0.8272 -3.3923 0.5977
                    CHANNELS 3 Zrotation Xrotation Yrotation
                    JOINT RightFinger12
                    {
                      OFFSET 0.565 -2.3158 0.4082
                      CHANNELS 3 Zrotation Xrotation Yrotation
                      End Site
                      {
                        OFFSET 0.4919 -1.6479 0.2673
                      }
                    }
                  }
                }
                JOINT RightFinger2
                {
                  OFFSET -0.916 -9.2044 0.2193
                  CHANNELS 3 Zrotation Xrotation Yrotation
                  JOINT RightFinger21
                  {
                    OFFSET -0.0117 -4.1944 -0.0248
                    CHANNELS 3 Zrotation Xrotation Yrotation
                    JOINT RightFinger22
                    {
                      OFFSET -0.0071 -2.3249 -0.0142
                      CHANNELS 3 Zrotation Xrotation Yrotation
                      End Site
                      {
                        OFFSET 0.1475 -2.0882 0.0028
                      }
                    }
                  }
                }
                JOINT RightFinger3
                {
                  OFFSET -0.6113 -8.7231 -2.0637
                  CHANNELS 3 Zrotation Xrotation Yrotation
                  JOINT RightFinger31
                  {
                    OFFSET 0.1927 -3.8059 -0.2383
                    CHANNELS 3 Zrotation Xrotation Yrotation
                    JOINT RightFinger32
                    {
                      OFFSET 0.1091 -2.1688 -0.1362
                      CHANNELS 3 Zrotation Xrotation Yrotation
                      End Site
                      {
                        OFFSET 0.2358 -1.9176 -0.0906
                      }
                    }
                  }
                }
                JOINT RightFinger4
                {
                  OFFSET 0.6151 -8.0947 -3.564
                  CHANNELS 3 Zrotation Xrotation Yrotation
                  JOINT RightFinger41
                  {
                    OFFSET 0.4882 -2.341 -0.6462
                    CHANNELS 3 Zrotation Xrotation Yrotation
                    JOINT RightFinger42
                    {
                      OFFSET 0.3574 -1.7166 -0.4742
                      CHANNELS 3 Zrotation Xrotation Yrotation
                      End Site
                      {
                        OFFSET 0.4187 -1.5237 -0.3496
                      }
                    }
                  }
                }
                JOINT RightFinger0
                {
                  OFFSET 1.4199 -1.8761 1.4221
                  CHANNELS 3 Zrotation Xrotation Yrotation
                  JOINT RightFinger01
                  {
                    OFFSET 1.1472 -3.4929 2.6336
                    CHANNELS 3 Zrotation Xrotation Yrotation
                    JOINT RightFinger02
                    {
                      OFFSET 0.8229 -2.3 1.6571
                      CHANNELS 3 Zrotation Xrotation Yrotation
                      End Site
                      {
                        OFFSET 0.5822 -1.6914 1.1582
                      }
                    }
                  }
                }
              }
            }
          }
        }
      }
    }
  }
  JOINT RightHip
  {
    OFFSET -9.412 3.9771 -0.7758
    CHANNELS 3 Zrotation Xrotation Yrotation
    JOINT RightKnee
    {
      OFFSET -0.7531 -40.938 0
      CHANNELS 3 Zrotation Xrotation Yrotation
      JOINT RightAnkle
      {
        OFFSET 0 -40.1986 0
        CHANNELS 3 Zrotation Xrotation Yrotation
        JOINT RightToe
        {
          OFFSET 0 -4.4182 9.239
          CHANNELS 3 Zrotation Xrotation Yrotation
          End Site
          {
            OFFSET 0 0 6.1981
          }
        }
      }
    }
  }
  JOINT LeftHip
  {
    OFFSET 9.4119 3.9773 -0.7758
    CHANNELS 3 Zrotation Xrotation Yrotation
    JOINT LeftKnee
    {
      OFFSET 0.7532 -40.9383 0
      CHANNELS 3 Zrotation Xrotation Yrotation
      JOINT LeftAnkle
      {
        OFFSET 0 -40.1986 0
        CHANNELS 3 Zrotation Xrotation Yrotation
        JOINT LeftToe
        {
          OFFSET 0 -4.4182 9.239
          CHANNELS 3 Zrotation Xrotation Yrotation
          End Site
          {
            OFFSET 0 0 6.1981
          }
        }
      }
    }
  }
}
MOTION
Frames:	4
Frame Time:	0.0333333
0.0049376 -20.0161 -1.63585 1.98419e-008 23.0555 -1.09213e-008 -0.245673 0.928284 -0.180184 -0.488522 1.85735 -0.356458 -0.48852 1.85735 -0.356456 -5.06036e-005 6.60815 -4.1299e-005 -4.50561e-007 8.92421 -3.03017e-008 5.69307 15.3037 -7.2781 9.29176 5.2089 24.6339 -25.7363 4.52954 -6.14021 -4.32281 -27.7931 -8.44496 -7.95139e-016 4.77083e-015 3.18055e-015 7.95139e-016 7.95139e-015 3.18055e-015 3.97569e-016 4.77083e-015 4.77083e-015 -7.95139e-016 4.77083e-015 3.18055e-015 -0.0127993 0.0023183 8.3325e-005 -2.78299e-015 0 -4.77083e-015 -7.95139e-016 4.77083e-015 3.18055e-015 -0.0160392 0.00299196 0.000856651 3.97569e-016 -3.18055e-015 -3.18055e-015 -7.95139e-016 4.77083e-015 3.18055e-015 -0.0125985 0.00311716 0.00282491 -1.19271e-015 -4.77083e-015 -3.18055e-015 -7.95139e-016 4.77083e-015 3.18055e-015 7.95139e-016 7.95139e-015 3.18055e-015 3.97569e-016 4.77083e-015 4.77083e-015 4.45569 16.4708 -1.85603 -12.5849 8.93466 -19.0951 12.6053 2.3053 3.4906 10.1783 -23.1669 8.03119 1.59028e-015 0 -1.59028e-015 1.59028e-015 -3.18055e-015 -1.59028e-015 7.95139e-016 -3.18055e-015 -0 1.59028e-015 0 -1.59028e-015 0.0129337 0.00231632 -8.67505e-005 -7.95139e-016 -9.54166e-015 1.59028e-015 1.59028e-015 0 -1.59028e-015 0.0163415 0.00304047 -0.00087173 7.95139e-016 -3.18055e-015 -3.18055e-015 1.59028e-015 0 -1.59028e-015 0.0145723 0.00367822 -0.00325934 -2.38542e-015 -3.18055e-015 -1.59028e-015 1.59028e-015 0 -1.59028e-015 1.59028e-015 -3.18055e-015 -1.59028e-015 7.95139e-016 -3.18055e-015 -0 1.26331 -21.4617 -15.1992 -148.684 77.252 146.438 11.1247 24.8945 -14.0218 -1.26439e-006 -2.37558e-006 -1.10472e-006 -1.1564 -22.9323 14.6224 118.384 82.0439 -117.071 -27.2121 52.3535 47.7266 3.77739e-007 -2.0038e-007 7.58546e-007 
0.00490993 -20.0124 -1.52672 -1.34639e-007 22.7246 3.85513e-008 -0.246606 1.19807 -0.179994 -0.489607 2.39693 -0.354944 -0.489605 2.39692 -0.354943 1.94977e-005 6.60785 1.56312e-005 2.34314e-007 9.3499 -3.84493e-008 5.57611 14.4579 -7.34753 9.29195 5.20899 24.634 -25.5696 4.50301 -6.07474 -4.3763 -27.8155 -8.24335 3.97569e-016 1.59028e-015 1.59028e-015 -7.95139e-016 -1.59028e-015 -0 1.98785e-015 0 -0 3.97569e-016 1.59028e-015 1.59028e-015 -0.0127901 0.00232248 8.64739e-005 -7.95139e-016 -3.18055e-015 -0 3.97569e-016 1.59028e-015 1.59028e-015 -0.0160442 0.00299336 0.000855006 -2.78299e-015 6.36111e-015 -1.59028e-015 3.97569e-016 1.59028e-015 1.59028e-015 -0.0125857 0.0031221 0.00282405 7.51618e-006 -2.51559e-006 3.30388e-007 3.97569e-016 1.59028e-015 1.59028e-015 -7.95139e-016 -1.59028e-015 -0 1.98785e-015 0 -0 4.73402 15.6039 -1.68867 -12.7604 8.92278 -19.0681 12.4795 2.28368 3.47224 10.2122 -23.2246 7.82283 7.95139e-016 0 -3.18055e-015 -0 -1.59028e-014 -0 -2.64834e-031 -9.54166e-015 -1.59028e-015 7.95139e-016 0 -3.18055e-015 0.0129232 0.00231048 -8.32939e-005 -1.59028e-015 3.18055e-015 -1.59028e-015 7.95139e-016 0 -3.18055e-015 0.0163224 0.00303294 -0.000871462 7.94503e-031 -9.54166e-015 4.77083e-015 7.95139e-016 0 -3.18055e-015 0.0145582 0.00367429 -0.00326032 -1.59028e-015 1.27222e-014 3.18055e-015 7.95139e-016 0 -3.18055e-015 -0 -1.59028e-014 -0 -2.64834e-031 -9.54166e-015 -1.59028e-015 1.28696 -21.0074 -15.168 -148.728 77.2323 146.479 11.1248 24.8928 -14.0222 1.34171e-006 1.83503e-006 1.05895e-006 -1.17458 -22.4778 14.5934 118.218 82.0592 -116.909 -27.2106 52.3545 47.7251 4.8104e-006 3.56652e-006 -6.594e-007 
0.00488146 -20.0084 -1.41759 1.0889e-007 22.3936 -5.869e-008 -0.247444 1.46745 -0.179761 -0.490521 2.93566 -0.353352 -0.490521 2.93566 -0.353352 -1.182e-005 6.60802 -9.76499e-006 -1.63015e-007 9.77557 -2.39744e-007 5.45849 13.6129 -7.4186 9.2921 5.2091 24.6339 -25.4027 4.47639 -6.00995 -4.42966 -27.838 -8.04168 1.82853e-007 1.63825e-006 9.28598e-007 1.76556e-031 -3.18055e-015 3.18055e-015 -2.24107e-007 3.52089e-008 8.06832e-007 1.82853e-007 1.63825e-006 9.28598e-007 -0.0128117 0.00233079 8.73414e-005 -2.24103e-007 3.52077e-008 8.06823e-007 1.82853e-007 1.63825e-006 9.28598e-007 -0.0160436 0.00299734 0.000857366 -4.12635e-008 1.67348e-006 1.73542e-006 1.82853e-007 1.63825e-006 9.28598e-007 -0.0125911 0.00312714 0.00282864 1.8283e-007 -1.48556e-006 9.28602e-007 1.82853e-007 1.63825e-006 9.28598e-007 1.76556e-031 -3.18055e-015 3.18055e-015 -2.24107e-007 3.52089e-008 8.06832e-007 5.01368 14.7384 -1.51781 -12.936 8.91082 -19.041 12.3536 2.26196 3.45409 10.2459 -23.2823 7.61432 -2.38542e-015 3.18055e-015 1.59028e-015 -2.38542e-015 6.36111e-015 -1.59028e-015 7.95139e-016 3.18055e-015 -1.59028e-015 -2.38542e-015 3.18055e-015 1.59028e-015 0.0129736 0.00232365 -8.10139e-005 -7.90384e-006 -5.3244e-006 1.96808e-006 -2.38542e-015 3.18055e-015 1.59028e-015 0.0163436 0.00303542 -0.000867934 -0 -1.59028e-014 -0 -2.38542e-015 3.18055e-015 1.59028e-015 0.0145606 0.00367912 -0.00325813 -7.95139e-016 6.36111e-015 4.77083e-015 -2.38542e-015 3.18055e-015 1.59028e-015 -2.38542e-015 6.36111e-015 -1.59028e-015 7.95139e-016 3.18055e-015 -1.59028e-015 1.31026 -20.553 -15.1371 -148.771 77.2128 146.52 11.125 24.8911 -14.0227 6.31259e-006 -1.12491e-005 2.20026e-006 -1.19247 -22.0233 14.5646 118.052 82.0743 -116.745 -27.2091 52.3555 47.7235 2.59825e-006 2.26282e-006 1.71096e-006 
0.00485174 -20.0041 -1.30848 1.25459e-007 22.0626 -1.04787e-008 -0.248229 1.73641 -0.17951 -0.491352 3.47356 -0.351732 -0.49135 3.47355 -0.351731 6.32995e-006 6.6079 5.04904e-006 -3.83198e-007 10.2012 -8.14177e-008 5.34027 12.7681 -7.4911 9.29223 5.20918 24.6339 -25.2356 4.44976 -5.94582 -4.483 -27.8608 -7.83999 -1.98785e-015 0 -0 3.97569e-016 -3.18055e-015 3.18055e-015 -1.19271e-015 3.18055e-015 -0 -1.98785e-015 0 -0 -0.0128174 0.00232604 8.44429e-005 7.95139e-016 3.18055e-015 -0 -1.98785e-015 0 -0 -0.0160478 0.00299811 0.000852632 5.86108e-007 -1.7884e-006 1.05225e-006 -1.98785e-015 0 -0 -0.0125732 0.00311769 0.0028243 -7.95139e-016 0 -0 -1.98785e-015 0 -0 3.97569e-016 -3.18055e-015 3.18055e-015 -1.19271e-015 3.18055e-015 -0 5.29485 13.8738 -1.34326 -13.1116 8.89875 -19.0141 12.2278 2.24032 3.43608 10.2795 -23.3402 7.40586 -7.95139e-016 3.18055e-015 -4.77083e-015 -1.59028e-015 3.18055e-015 -1.59028e-015 0 6.36111e-015 -0 -7.95139e-016 3.18055e-015 -4.77083e-015 0.0129658 0.00232568 -9.13781e-005 7.95139e-016 -3.18055e-015 -0 -7.95139e-016 3.18055e-015 -4.77083e-015 0.0163359 0.00303912 -0.000874583 -1.59028e-015 -3.18055e-015 -6.36111e-015 -7.95139e-016 3.18055e-015 -4.77083e-015 0.0145705 0.00367582 -0.00325977 1.59028e-015 -6.36111e-015 -1.59028e-015 -7.95139e-016 3.18055e-015 -4.77083e-015 -1.59028e-015 3.18055e-015 -1.59028e-015 0 6.36111e-015 -0 1.33317 -20.0988 -15.1065 -148.815 77.1932 146.561 11.1251 24.8894 -14.0231 3.02596e-007 -1.55822e-006 -3.04649e-006 -1.21006 -21.5689 14.5361 117.886 82.0894 -116.582 -27.2075 52.3564 47.7219 -1.04342e-006 2.69796e-008 1.3542e-006 
